<svg width="195" height="52" viewBox="0 0 195 52" fill="none" xmlns="http://www.w3.org/2000/svg">
<rect x="1.41571" y="1.21832" width="192.563" height="49.5634" rx="6.81676" stroke="url(#paint0_linear_1_4)" stroke-width="1.16859"/>
<path d="M21.7447 34.0398H20.9656L27.7902 19.97H28.5692L21.7447 34.0398ZM30.5913 34.0398H29.8122L36.6368 19.97H37.4158L30.5913 34.0398ZM45.9414 31.5H45.1V22.0423C45.1 20.9516 45.6142 20.5932 46.5802 20.5932H52.6413V21.3411H46.6114C46.0193 21.3411 45.9414 21.5748 45.9414 22.0423V25.7038H50.8339V26.4517H45.9414V31.5ZM59.8151 20.4686C63.7727 20.4686 65.0815 22.1046 65.0815 26.0466C65.0815 29.9887 63.7727 31.6247 59.8151 31.6247C55.8575 31.6247 54.5175 29.9887 54.5175 26.0466C54.5175 22.1046 55.8575 20.4686 59.8151 20.4686ZM55.4212 26.0466C55.4212 29.5212 56.2781 30.8768 59.7995 30.8768C63.3208 30.8768 64.1778 29.5212 64.1778 26.0466C64.1778 22.572 63.3208 21.2165 59.7995 21.2165C56.2781 21.2165 55.4212 22.572 55.4212 26.0466ZM68.5144 31.5V22.2604C68.5144 21.1697 69.013 20.5932 70.1504 20.5932H74.7468C76.7412 20.5932 77.3021 21.9176 77.3021 23.7874C77.3021 25.7194 76.8191 27.0594 74.8715 27.0594H72.4564V27.1373L77.567 31.5H76.3361L71.5215 27.3554C71.3657 27.2152 71.2255 27.1217 71.2255 26.9192V26.6699C71.2255 26.4362 71.3657 26.3115 71.5994 26.3115H74.8247C76.3205 26.3115 76.3984 25.1741 76.3984 23.7874C76.3984 22.3227 76.2114 21.3411 74.591 21.3411H70.1348C69.7764 21.3411 69.3557 21.5125 69.3557 22.0734V31.5H68.5144ZM91.8301 21.5281L88.1218 30.4405C87.8413 31.1105 87.5764 31.6247 87.0155 31.6247C86.4546 31.6247 86.1897 31.1105 85.9093 30.4405L82.2009 21.5281C82.1386 21.3567 82.014 21.2009 81.9049 21.2009C81.827 21.2009 81.6868 21.2476 81.6868 21.4969V31.5H80.8454V21.4969C80.8454 20.8893 81.2505 20.4686 81.8737 20.4686C82.497 20.4686 82.7774 20.8737 83.0579 21.5437L86.7506 30.4249C86.813 30.5652 86.8597 30.7677 87.0155 30.7677C87.1713 30.7677 87.2181 30.5652 87.2804 30.4249L90.9731 21.5437C91.2536 20.8737 91.5341 20.4686 92.1573 20.4686C92.7806 20.4686 93.1857 20.8893 93.1857 21.4969V31.5H92.3443V21.4969C92.3443 21.2476 92.2041 21.2009 92.1261 21.2009C92.0171 21.2009 91.8924 21.3567 91.8301 21.5281ZM95.6731 31.5L99.8488 21.6216C100.098 21.0295 100.394 20.4686 101.064 20.4686C101.703 20.4686 102.03 21.0451 102.279 21.6216L106.455 31.5H105.552L104.227 28.3215H97.9012L96.5768 31.5H95.6731ZM100.612 21.8709L98.2284 27.5736H103.9L101.516 21.8709C101.407 21.6372 101.298 21.2476 101.064 21.2476C100.83 21.2476 100.721 21.6372 100.612 21.8709ZM112.592 34.1488V33.51H113.917C114.259 33.51 114.431 33.4165 114.431 33.214C114.431 32.9802 114.119 32.9802 114.01 32.9802H113.402C112.982 32.9802 112.935 32.7621 112.935 32.6375C112.935 32.5284 112.966 32.4193 113.013 32.3414L113.449 31.5H113.106C109.57 31.5 108.635 29.007 108.635 26.0466C108.635 23.0862 109.523 20.5932 113.262 20.5932H117.329V21.3411H113.262C110.458 21.3411 109.538 23.0862 109.538 26.0466C109.538 29.007 110.395 30.7521 113.122 30.7521H117.5V31.5H114.166L113.854 32.1233C113.839 32.1544 113.808 32.2323 113.808 32.2479C113.808 32.3414 113.901 32.3414 113.948 32.3414H114.135C114.696 32.3414 115.163 32.4972 115.163 33.1984C115.163 33.6814 115.054 34.1488 114.072 34.1488H112.592ZM119.681 31.5L123.857 21.6216C124.106 21.0295 124.402 20.4686 125.072 20.4686C125.711 20.4686 126.038 21.0451 126.287 21.6216L130.463 31.5H129.559L128.235 28.3215H121.909L120.585 31.5H119.681ZM124.62 21.8709L122.236 27.5736H127.908L125.524 21.8709C125.415 21.6372 125.306 21.2476 125.072 21.2476C124.838 21.2476 124.729 21.6372 124.62 21.8709ZM122.828 20.0323L122.267 19.6583C122.626 19.0507 123.187 18.4119 123.997 18.4119C124.324 18.4119 124.589 18.4742 124.838 18.6612L125.446 19.113C125.664 19.2688 125.898 19.4246 126.225 19.4246C126.739 19.4246 127.035 18.9105 127.3 18.4586L127.877 18.7858C127.549 19.4714 126.973 20.1258 126.131 20.1258C125.835 20.1258 125.524 20.0479 125.29 19.8765L124.776 19.487C124.542 19.3156 124.246 19.113 123.95 19.113C123.42 19.113 123.093 19.6116 122.828 20.0323ZM137.94 20.4686C141.898 20.4686 143.206 22.1046 143.206 26.0466C143.206 29.9887 141.898 31.6247 137.94 31.6247C133.982 31.6247 132.642 29.9887 132.642 26.0466C132.642 22.1046 133.982 20.4686 137.94 20.4686ZM133.546 26.0466C133.546 29.5212 134.403 30.8768 137.924 30.8768C141.446 30.8768 142.303 29.5212 142.303 26.0466C142.303 22.572 141.446 21.2165 137.924 21.2165C134.403 21.2165 133.546 22.572 133.546 26.0466ZM157.599 31.5H154.794V22.7746H150.743V20.5932H161.65V22.7746H157.599V31.5ZM164.108 31.5V29.3187H170.153C170.901 29.3187 170.932 28.8357 170.932 28.5708C170.932 28.1968 170.745 27.8852 170.091 27.6826L165.822 26.405C164.404 25.9843 163.983 24.878 163.983 23.3511C163.983 21.7151 164.7 20.5932 166.507 20.5932H173.238V22.7746H167.598C167.193 22.7746 166.834 22.9304 166.834 23.4913C166.834 23.912 167.053 24.208 167.707 24.4106L171.54 25.5324C173.16 25.9999 173.799 26.8101 173.799 28.6019C173.799 30.3314 173.16 31.5 171.306 31.5H164.108Z" fill="white"/>
<defs>
<linearGradient id="paint0_linear_1_4" x1="2.24965" y1="1.80261" x2="86.5796" y2="96.6098" gradientUnits="userSpaceOnUse">
<stop stop-color="#01C4FB"/>
<stop offset="1" stop-color="#0165FC"/>
</linearGradient>
</defs>
</svg>
