<svg width="32" height="32" viewBox="0 0 32 32" fill="none" xmlns="http://www.w3.org/2000/svg">
<circle cx="15.9915" cy="16" r="15.9915" fill="#00A277" fill-opacity="0.15"/>
<path d="M24.3546 10.6053L13.0663 21.8935C13.0335 21.9263 12.9946 21.9524 12.9518 21.9701C12.909 21.9879 12.8631 21.997 12.8167 21.997C12.7704 21.997 12.7245 21.9879 12.6816 21.9701C12.6388 21.9524 12.5999 21.9263 12.5671 21.8935L7.62852 16.9549C7.56233 16.8887 7.52515 16.799 7.52515 16.7054C7.52515 16.6117 7.56233 16.522 7.62852 16.4558C7.69472 16.3896 7.78449 16.3524 7.8781 16.3524C7.97171 16.3524 8.06149 16.3896 8.12768 16.4558L12.8167 21.1448L23.8554 10.1061C23.9216 10.0399 24.0114 10.0027 24.105 10.0027C24.1986 10.0027 24.2884 10.0399 24.3546 10.1061C24.4208 10.1723 24.4579 10.2621 24.4579 10.3557C24.4579 10.4493 24.4208 10.5391 24.3546 10.6053Z" fill="#00A277"/>
</svg>
