<svg width="23" height="23" viewBox="0 0 23 23" fill="none" xmlns="http://www.w3.org/2000/svg">
<path d="M8.60261 17.6766C8.10418 18.7663 6.44091 21.3082 1.76717 21.3082C1.53269 21.3082 1.3078 21.215 1.142 21.0492C0.976191 20.8834 0.883041 20.6585 0.883041 20.424C0.883041 15.7503 3.42492 14.087 4.51461 13.5886C4.62027 13.5404 4.73438 13.5135 4.85043 13.5094C4.96648 13.5053 5.0822 13.5242 5.19099 13.5648C5.29977 13.6054 5.39948 13.6671 5.48443 13.7463C5.56938 13.8255 5.6379 13.9206 5.68608 14.0262C5.73427 14.1319 5.76117 14.246 5.76525 14.3621C5.76933 14.4781 5.75052 14.5938 5.70988 14.7026C5.66924 14.8114 5.60757 14.9111 5.5284 14.9961C5.44923 15.081 5.35409 15.1495 5.24844 15.1977C4.53782 15.5215 2.96959 16.5637 2.6933 19.4979C5.62751 19.2216 6.67189 17.6534 6.99349 16.9428C7.04168 16.8371 7.1102 16.742 7.19515 16.6628C7.2801 16.5836 7.37981 16.522 7.48859 16.4813C7.59737 16.4407 7.71309 16.4219 7.82914 16.426C7.9452 16.43 8.05931 16.4569 8.16496 16.5051C8.27062 16.5533 8.36575 16.6218 8.44493 16.7068C8.5241 16.7917 8.58577 16.8914 8.62641 17.0002C8.66705 17.109 8.68586 17.2247 8.68178 17.3408C8.6777 17.4568 8.65079 17.5709 8.60261 17.6766ZM22.0856 1.76224C22.0594 1.33114 21.8763 0.92454 21.571 0.619147C21.2656 0.313754 20.859 0.130689 20.4279 0.104491C19.0376 0.0216036 15.4845 0.148697 12.537 3.09617L7.07196 8.56562C6.98989 8.64784 6.89242 8.71309 6.78514 8.75764C6.67785 8.80219 6.56283 8.82517 6.44666 8.82528C6.21205 8.82548 5.98696 8.73248 5.82091 8.56673C5.65487 8.40098 5.56147 8.17605 5.56126 7.94144C5.56105 7.70682 5.65406 7.48173 5.81981 7.31568L8.75512 4.37926C8.81657 4.31745 8.85838 4.23885 8.87528 4.15334C8.89219 4.06783 8.88344 3.97923 8.85013 3.89869C8.81682 3.81814 8.76045 3.74923 8.68809 3.70063C8.61574 3.65203 8.53063 3.62591 8.44347 3.62554H5.56341C5.33048 3.62431 5.09964 3.66941 4.8843 3.7582C4.66895 3.84699 4.47341 3.97771 4.30905 4.14276L0.518337 7.93568C0.285864 8.168 0.122736 8.4605 0.0472599 8.78038C-0.0282157 9.10025 -0.0130516 9.43482 0.0910505 9.74656C0.195153 10.0583 0.384073 10.3348 0.636609 10.5452C0.889145 10.7555 1.1953 10.8913 1.52072 10.9373L5.77229 11.5308L10.6582 16.4167L11.2517 20.6705C11.2973 20.9959 11.4331 21.3021 11.6436 21.5544C11.8541 21.8068 12.1311 21.9952 12.4431 22.0984C12.6248 22.1591 12.8151 22.1901 13.0067 22.1901C13.2387 22.1906 13.4685 22.1451 13.6828 22.0564C13.8972 21.9676 14.0918 21.8372 14.2555 21.6729L18.0484 17.8822C18.213 17.7174 18.3434 17.5218 18.4321 17.3066C18.5209 17.0913 18.5663 16.8606 18.5657 16.6278V13.7477C18.5655 13.6603 18.5395 13.575 18.4908 13.5024C18.4422 13.4298 18.3731 13.3732 18.2923 13.3399C18.2115 13.3065 18.1227 13.2979 18.037 13.315C17.9513 13.3321 17.8726 13.3743 17.8108 13.4361L14.8744 16.3714C14.7885 16.4574 14.6858 16.5247 14.5728 16.5692C14.4597 16.6137 14.3387 16.6345 14.2172 16.6301C14.0958 16.6257 13.9766 16.5964 13.867 16.5439C13.7574 16.4914 13.6598 16.4169 13.5803 16.325C13.4352 16.1495 13.3615 15.926 13.3738 15.6987C13.3861 15.4714 13.4835 15.257 13.6466 15.0982L19.0917 9.65311C22.0414 6.70453 22.1685 3.15143 22.0856 1.76003V1.76224Z" fill="white"/>
</svg>
