<svg width="44" height="45" viewBox="0 0 44 45" fill="none" xmlns="http://www.w3.org/2000/svg">
<g clip-path="url(#clip0_11_249)">
<path d="M44 22.7349C44 10.5846 34.1503 0.734863 22 0.734863C9.84974 0.734863 0 10.5846 0 22.7349C0 34.8851 9.84974 44.7349 22 44.7349C34.1503 44.7349 44 34.8851 44 22.7349Z" fill="#00A277"/>
<path d="M30.3547 15.2864C28.3906 13.3177 25.775 12.2349 22.9953 12.2349C17.2578 12.2349 12.5891 16.9036 12.5891 22.6411C12.5891 24.4739 13.0672 26.2646 13.9766 27.8443L12.5 33.2349L18.0172 31.7864C19.5359 32.6161 21.2469 33.0521 22.9906 33.0521H22.9953C28.7281 33.0521 33.5 28.3833 33.5 22.6458C33.5 19.8661 32.3188 17.2552 30.3547 15.2864ZM22.9953 31.2989C21.4391 31.2989 19.9156 30.8818 18.5891 30.0943L18.275 29.9068L15.0031 30.7646L15.875 27.5724L15.6687 27.2443C14.8016 25.8661 14.3469 24.2771 14.3469 22.6411C14.3469 17.8739 18.2281 13.9927 23 13.9927C25.3109 13.9927 27.4812 14.8927 29.1125 16.5286C30.7437 18.1646 31.7469 20.3349 31.7422 22.6458C31.7422 27.4177 27.7625 31.2989 22.9953 31.2989ZM27.7391 24.8208C27.4813 24.6896 26.2016 24.0614 25.9625 23.9771C25.7234 23.888 25.55 23.8458 25.3766 24.1083C25.2031 24.3708 24.7063 24.9521 24.5516 25.1302C24.4016 25.3036 24.2469 25.3271 23.9891 25.1958C22.4609 24.4318 21.4578 23.8318 20.45 22.1021C20.1828 21.6427 20.7172 21.6755 21.2141 20.6818C21.2984 20.5083 21.2562 20.3583 21.1906 20.2271C21.125 20.0958 20.6047 18.8161 20.3891 18.2958C20.1781 17.7896 19.9625 17.8599 19.8031 17.8505C19.6531 17.8411 19.4797 17.8411 19.3062 17.8411C19.1328 17.8411 18.8516 17.9068 18.6125 18.1646C18.3734 18.4271 17.7031 19.0552 17.7031 20.3349C17.7031 21.6146 18.6359 22.8521 18.7625 23.0255C18.8938 23.1989 20.5953 25.8239 23.2062 26.9536C24.8562 27.6661 25.5031 27.7271 26.3281 27.6052C26.8297 27.5302 27.8656 26.9771 28.0812 26.3677C28.2969 25.7583 28.2969 25.238 28.2313 25.1302C28.1703 25.013 27.9969 24.9474 27.7391 24.8208Z" fill="white"/>
</g>
<defs>
<clipPath id="clip0_11_249">
<rect width="44" height="45" fill="white"/>
</clipPath>
</defs>
</svg>
